<svg width="1920" height="1080" viewBox="0 0 1920 1080" fill="none" xmlns="http://www.w3.org/2000/svg">
<g clip-path="url(#clip0_1_91)">
<rect width="1920" height="1080" fill="#001254"/>
<g filter="url(#filter0_f_1_91)">
<path d="M2271.15 568.332C2180.88 591.724 1677.18 723.459 1646.42 731.462C1635.62 734.54 1625.84 740.08 1617.48 747.672C1609.13 755.265 1602.81 764.703 1598.74 775.168C1588.34 803.075 1516.62 988.981 1508.06 1011.14C1503.78 1020.58 1501.95 1031.05 1502.36 1041.51C1502.76 1051.98 1505.62 1062.03 1510.51 1071.26L1706.32 1486.58C1710.6 1496.43 1717.32 1505.05 1725.68 1511.82C1734.03 1518.59 1743.81 1523.31 1754.21 1525.56L2191.68 1625.49C2203.91 1628.37 2216.54 1627.75 2228.36 1623.65C2240.18 1619.54 2250.57 1612.36 2258.52 1602.51L2535.63 1276.66C2551.94 1257.38 2579.24 1200.54 2561.92 1145.54L2401.56 636.867C2378.53 563.818 2331.46 552.532 2271.56 568.332H2271.15Z" fill="url(#paint0_linear_1_91)"/>
</g>
<foreignObject x="1230.85" y="654.562" width="1129.44" height="1129.44"><div xmlns="http://www.w3.org/1999/xhtml" style="backdrop-filter:blur(33.23px);clip-path:url(#bgblur_1_1_91_clip_path);height:100%;width:100%"></div></foreignObject><g opacity="0.2" filter="url(#filter1_f_1_91)" data-figma-bg-blur-radius="66.4509">
<path d="M2016.62 726.841C1932.17 748.726 1460.92 871.973 1432.13 879.46C1422.03 882.339 1412.88 887.523 1405.06 894.626C1397.25 901.729 1391.34 910.559 1387.53 920.35C1377.8 946.458 1310.7 1120.39 1302.69 1141.12C1298.69 1149.95 1296.98 1159.74 1297.36 1169.53C1297.74 1179.32 1300.41 1188.73 1304.98 1197.37L1488.18 1585.92C1492.18 1595.14 1498.47 1603.2 1506.29 1609.53C1514.11 1615.87 1523.26 1620.28 1532.98 1622.4L1942.27 1715.89C1953.71 1718.57 1965.53 1718 1976.58 1714.16C1987.64 1710.32 1997.36 1703.6 2004.8 1694.39L2264.06 1389.53C2279.31 1371.49 2304.85 1318.31 2288.65 1266.86L2138.62 790.96C2117.08 722.618 2073.04 712.059 2017 726.841H2016.62Z" fill="white"/>
</g>
<g opacity="0.2" filter="url(#filter2_f_1_91)">
<path fill-rule="evenodd" clip-rule="evenodd" d="M1261.27 993.073C1262.55 989.741 1267.46 989.688 1269.13 992.844L1486.03 1452.87C1490.77 1463.78 1498.22 1473.33 1507.47 1480.83C1516.72 1488.33 1527.56 1493.55 1539.07 1496.05L2023.65 1606.74C2037.19 1609.93 2051.18 1609.24 2064.27 1604.7C2077.36 1600.15 2088.87 1592.2 2097.67 1581.29L2404.63 1220.36C2412.45 1211.1 2427.7 1214.19 2425.79 1226.16C2420.13 1261.67 2403.95 1291.59 2392.58 1305.03L2085.63 1665.96C2076.83 1676.87 2065.32 1684.83 2052.23 1689.37C2039.14 1693.92 2025.15 1694.6 2011.6 1691.42L1527.03 1580.73C1515.52 1578.23 1504.68 1573 1495.43 1565.5C1486.17 1558 1478.73 1548.46 1473.99 1537.55L1257.09 1077.52C1251.67 1067.29 1248.51 1056.15 1248.06 1044.56C1247.61 1032.97 1249.64 1021.38 1254.38 1010.92C1255.61 1007.75 1258 1001.54 1261.27 993.073Z" fill="#0009BF"/>
</g>
<g opacity="0.6" filter="url(#filter3_f_1_91)">
<path fill-rule="evenodd" clip-rule="evenodd" d="M2110.2 513.34C2110.32 513.34 2110.45 513.323 2110.57 513.292C2158.14 500.786 2196.88 506.937 2220.11 552.397C2221.83 555.77 2219.81 559.796 2216.15 560.749C2215.96 560.799 2215.76 560.848 2215.57 560.898C2215.45 560.93 2215.33 560.946 2215.2 560.946C2215.08 560.946 2214.98 560.956 2214.86 560.987C2131.58 582.569 1669.85 703.328 1641.63 710.668C1631.72 713.493 1622.74 718.578 1615.08 725.546C1607.41 732.514 1601.61 741.178 1597.87 750.782C1588.33 776.395 1522.5 947.021 1514.65 967.361C1510.72 976.023 1509.04 985.628 1509.41 995.233C1509.79 1004.84 1512.41 1014.07 1516.89 1022.54L1696.61 1403.72C1697.03 1404.68 1696.19 1405.74 1695.16 1405.51L1635.56 1391.89C1626.02 1389.82 1617.04 1385.49 1609.37 1379.28C1601.71 1373.06 1595.53 1365.15 1591.61 1356.11L1411.89 974.934C1407.4 966.459 1404.78 957.231 1404.41 947.626C1404.03 938.021 1405.71 928.416 1409.64 919.753C1417.5 899.412 1483.33 728.788 1492.86 703.175C1496.6 693.57 1502.4 684.908 1510.07 677.94C1517.74 670.971 1526.71 665.886 1536.62 663.061C1564.85 655.72 2026.58 534.962 2109.85 513.381C2109.97 513.35 2110.07 513.34 2110.2 513.34Z" fill="white"/>
</g>
<g opacity="0.78" filter="url(#filter4_f_1_91)">
<path fill-rule="evenodd" clip-rule="evenodd" d="M2491.08 407.836C2488.12 398.427 2496.56 389.234 2504.96 394.395C2525.69 407.12 2542.28 429.917 2553.67 466.059L2735.35 1042.37C2754.97 1104.67 2724.04 1169.07 2705.57 1190.92L2391.61 1560.09C2382.61 1571.25 2370.83 1579.39 2357.44 1584.04C2344.05 1588.69 2329.74 1589.39 2315.89 1586.13L1820.25 1472.91C1808.47 1470.36 1797.39 1465.01 1787.93 1457.34C1778.46 1449.67 1770.84 1439.9 1766 1428.74C1763.39 1423.22 1768.3 1417.12 1774.25 1418.48L2253.3 1527.91C2267.15 1531.16 2281.47 1530.46 2294.86 1525.82C2308.24 1521.17 2320.02 1513.03 2329.02 1501.87L2642.98 1132.7C2661.45 1110.84 2692.39 1046.45 2672.76 984.145L2491.08 407.836Z" fill="white"/>
</g>
<g opacity="0.45" filter="url(#filter5_f_1_91)">
<path d="M1852.07 -261.801C2062.44 -261.801 2240.88 -125.079 2303.38 64.3558L2303.45 64.3166L2452.76 527.42C2474.03 609.359 2408.48 688.475 2319.33 688.475H1852.07C1589.66 688.475 1376.93 475.748 1376.93 213.336C1376.93 -49.0749 1589.66 -261.801 1852.07 -261.801Z" fill="#00B0FF"/>
</g>
<g opacity="0.2" filter="url(#filter6_f_1_91)">
<path d="M1839.68 -205.646C2050.05 -205.646 2228.49 -68.9235 2290.99 120.512L2291.06 120.472L2440.36 583.576C2461.64 665.515 2396.09 744.631 2306.93 744.631H1839.68C1577.27 744.631 1364.54 531.904 1364.54 269.492C1364.54 7.08086 1577.26 -205.645 1839.68 -205.646Z" fill="white"/>
</g>
<g filter="url(#filter7_f_1_91)">
<path d="M2104.28 64.2773C2154.16 113.319 2192.53 174.033 2214.96 241.995C2214.97 242.014 2214.99 242.023 2215.01 242.013C2215.02 242.004 2215.05 242.012 2215.05 242.031L2354.83 675.595C2374.75 752.314 2313.38 826.389 2229.91 826.39H1792.42C1660.31 826.389 1541.66 768.807 1460.18 677.374C1540.46 756.31 1650.57 805.006 1772.06 805.006H2209.55C2293.02 805.005 2354.39 730.931 2334.47 654.212L2194.69 220.648C2194.69 220.629 2194.66 220.62 2194.65 220.63C2194.63 220.64 2194.61 220.631 2194.6 220.612C2175.33 162.213 2144.29 109.166 2104.28 64.2773Z" fill="white"/>
</g>
<g opacity="0.6" filter="url(#filter8_f_1_91)">
<path fill-rule="evenodd" clip-rule="evenodd" d="M1172.28 132.153C1180.24 89.7494 1236.46 117.035 1236.46 160.178C1236.46 490.649 1504.36 758.55 1834.83 758.55H2423.28C2453.57 758.55 2479.47 789.057 2455.11 807.068C2426.06 828.543 2389.38 841.546 2348.82 841.546H1760.37C1429.9 841.546 1162 573.645 1162 243.173C1162 205.238 1165.53 168.128 1172.28 132.153Z" fill="white"/>
</g>
<g opacity="0.3" filter="url(#filter9_f_1_91)">
<path d="M1749.31 -285C1991.12 -285 2196.22 -127.847 2268.06 89.897L2268.14 89.8519L2439.76 622.16C2464.21 716.344 2388.87 807.283 2286.39 807.283H1749.31C1447.69 807.283 1203.17 562.766 1203.17 261.141C1203.17 -40.4845 1447.68 -285 1749.31 -285Z" fill="#00B0FF"/>
</g>
<g filter="url(#filter10_f_1_91)">
<path d="M2073.53 5.95947C2139.47 59.1266 2189.93 130.733 2217.06 212.946C2217.07 212.965 2217.09 212.973 2217.11 212.964C2217.13 212.955 2217.15 212.963 2217.15 212.982L2356.94 646.545C2376.85 723.264 2315.48 797.339 2232.01 797.339H1794.52C1668.1 797.339 1553.99 744.604 1473 659.932C1549.31 721.454 1646.36 758.285 1752.01 758.286H2189.5C2272.98 758.285 2334.34 684.21 2314.43 607.491L2174.65 173.927C2174.64 173.908 2174.62 173.9 2174.6 173.909C2174.58 173.919 2174.56 173.91 2174.56 173.891C2153.6 110.38 2118.72 53.1999 2073.53 5.95947Z" fill="white"/>
</g>
<g filter="url(#filter11_d_1_91)">
<rect width="1920" height="1080" fill="black" fill-opacity="0.06" shape-rendering="crispEdges"/>
</g>
<path d="M1523.43 880.004C1514.97 879.9 1506.61 881.965 1499.08 886.017C1491.55 890.069 1485.09 895.986 1480.26 903.248C1475.43 910.511 1472.38 918.899 1471.37 927.676C1470.75 933.03 1470.91 938.429 1471.82 943.696C1472.4 947.067 1486.21 938.383 1487.4 941.6L1506.65 945.287L1571 914.255C1567.23 904.255 1560.69 895.656 1552.22 889.555C1543.75 883.455 1533.73 880.129 1523.43 880.004Z" fill="#FF0000"/>
<path d="M1504.87 939.877L1476.2 953.63C1481.85 964 1490.93 972.061 1501.87 976.422C1512.8 980.782 1524.91 981.169 1536.1 977.514C1547.29 973.86 1556.86 966.394 1563.15 956.405C1569.45 946.416 1572.08 934.53 1570.59 922.8L1504.87 939.877Z" fill="#00B0FF"/>
<path d="M1515 892C1534.48 892 1551 904.662 1556.79 922.203L1556.8 922.198L1570.63 965.084C1572.6 972.672 1566.53 979.998 1558.27 979.998H1515.15C1515.1 979.998 1515.05 980 1515 980C1490.7 980 1471 960.301 1471 936C1471 911.7 1490.7 892 1515 892Z" fill="black"/>
<path d="M1471 953.374L1488.15 979.891L1501.4 945.491L1471 953.374Z" fill="#00B0FF"/>
<path d="M1499.51 928.968H1488.2V920.001H1521.8V928.953H1510.51V954.801H1499.51V928.968Z" fill="white"/>
<path d="M1535.21 945.853H1554.2V954.801H1524.2V920.001H1535.21V945.853Z" fill="white"/>
<path d="M1621.58 896.676V897.188H1614.68V896.676C1614.68 896.236 1614.45 895.885 1613.99 895.621C1613.54 895.348 1612.89 895.211 1612.05 895.211C1610.29 895.211 1609.4 895.68 1609.39 896.617C1609.39 897.613 1610.48 898.116 1612.65 898.126C1616.2 898.126 1618.76 898.722 1620.32 899.913C1621.86 901.114 1622.64 902.818 1622.64 905.025C1622.64 907.154 1621.77 908.81 1620.04 909.991C1618.3 911.192 1615.74 911.793 1612.34 911.793C1608.93 911.793 1606.36 911.222 1604.63 910.079C1602.91 908.927 1602.05 907.242 1602.05 905.025V904.088H1608.95V905.025C1608.95 906.207 1610.09 906.793 1612.35 906.783C1614.61 906.783 1615.74 906.217 1615.74 905.084C1615.74 903.961 1614.69 903.399 1612.59 903.399C1605.88 903.399 1602.51 901.158 1602.49 896.676C1602.49 894.654 1603.3 893.067 1604.93 891.915C1606.55 890.772 1608.92 890.201 1612.05 890.201C1618.4 890.201 1621.58 892.359 1621.58 896.676ZM1624.12 907.149C1624.12 905.567 1624.73 904.395 1625.95 903.634C1627.18 902.882 1628.77 902.506 1630.73 902.506C1631.72 902.506 1632.6 902.589 1633.37 902.755C1634.11 902.911 1634.6 903.087 1634.83 903.282L1635.17 903.517V901.598C1635.17 901.148 1635.02 900.811 1634.73 900.587C1634.45 900.362 1633.94 900.25 1633.22 900.25C1631.9 900.25 1631.24 900.699 1631.24 901.598H1624.93C1624.93 899.83 1625.64 898.492 1627.05 897.584C1628.48 896.666 1630.53 896.207 1633.22 896.207C1635.92 896.207 1637.91 896.641 1639.21 897.511C1640.51 898.38 1641.16 899.742 1641.16 901.598V905.348C1641.16 905.816 1641.21 906.144 1641.32 906.329C1641.44 906.515 1641.64 906.607 1641.92 906.607L1642.36 906.549V911.5C1641.91 911.695 1641.12 911.793 1639.97 911.793C1638.72 911.793 1637.75 911.515 1637.06 910.958C1636.48 910.509 1636.08 910.069 1635.86 909.64L1635.77 909.405H1635.46C1635.36 909.659 1635.18 909.937 1634.92 910.24C1634.67 910.523 1634.36 910.768 1634.01 910.973C1633.63 911.197 1633.09 911.388 1632.39 911.544C1631.69 911.71 1630.94 911.793 1630.13 911.793C1628.38 911.793 1626.94 911.402 1625.81 910.621C1624.69 909.85 1624.12 908.692 1624.12 907.149ZM1630.13 906.725C1630.13 907.369 1630.97 907.691 1632.65 907.691C1634.33 907.691 1635.17 907.369 1635.17 906.725C1635.17 906.09 1634.33 905.772 1632.65 905.772C1630.97 905.772 1630.13 906.09 1630.13 906.725ZM1644.48 896.5H1650.48V911.5H1644.48V896.5ZM1644.33 892.633C1644.33 891.851 1644.61 891.251 1645.17 890.831C1645.72 890.411 1646.51 890.201 1647.51 890.201C1648.48 890.201 1649.24 890.416 1649.8 890.846C1650.35 891.265 1650.63 891.861 1650.63 892.633C1650.63 893.424 1650.35 894.039 1649.8 894.478C1649.24 894.908 1648.48 895.123 1647.51 895.123C1646.51 895.123 1645.72 894.913 1645.17 894.493C1644.61 894.063 1644.33 893.443 1644.33 892.633ZM1671.18 911.5H1665.19V904.264C1665.19 903.414 1664.93 902.735 1664.42 902.227C1663.92 901.71 1663.22 901.451 1662.33 901.451C1661.42 901.451 1660.72 901.705 1660.22 902.213C1659.73 902.711 1659.49 903.394 1659.49 904.264V911.5H1653.48V896.5H1659.49V899.195H1659.78C1659.85 898.961 1660.07 898.609 1660.45 898.141C1660.72 897.818 1661.04 897.52 1661.42 897.247C1661.84 896.964 1662.39 896.72 1663.06 896.515C1663.74 896.309 1664.44 896.207 1665.19 896.207C1667.04 896.207 1668.51 896.729 1669.58 897.774C1670.64 898.829 1671.18 900.406 1671.18 902.506V911.5ZM1674.72 905.494V900.997H1672.83V898.155L1677.72 893.497H1680.72V896.5H1684.79V900.997H1680.72V904.688C1680.72 905.538 1680.93 906.139 1681.35 906.49C1681.77 906.832 1682.42 907.003 1683.3 907.003C1684.01 907.003 1684.53 906.9 1684.85 906.695L1685.1 906.607V911.295C1684.38 911.637 1683.47 911.803 1682.36 911.793C1679.71 911.793 1677.77 911.295 1676.55 910.299C1675.33 909.312 1674.72 907.711 1674.72 905.494ZM1610.69 930.699H1601.61V923.492H1628.56V930.699H1619.48V951.5H1610.69V930.699ZM1649.98 941.5L1649.86 942.691H1634.41C1634.44 944.006 1634.73 944.97 1635.29 945.582C1635.86 946.194 1636.75 946.5 1637.96 946.5C1638.63 946.5 1639.22 946.357 1639.74 946.07C1640.26 945.784 1640.61 945.471 1640.78 945.133L1641.01 944.703H1649.53C1649.53 945.029 1649.41 945.497 1649.18 946.109C1648.73 947.229 1648.06 948.212 1647.16 949.059C1646.54 949.658 1645.84 950.152 1645.05 950.543C1644.29 950.934 1643.31 951.253 1642.12 951.5C1640.85 951.76 1639.46 951.891 1637.96 951.891C1634.32 951.891 1631.41 951.018 1629.23 949.273C1627.06 947.529 1625.97 944.937 1625.97 941.5C1625.97 938.088 1627.06 935.504 1629.23 933.746C1631.4 931.988 1634.31 931.109 1637.98 931.109C1641.64 931.109 1644.55 931.988 1646.71 933.746C1648.89 935.504 1649.98 938.088 1649.98 941.5ZM1637.96 936.305C1636.95 936.305 1636.14 936.578 1635.54 937.125C1634.94 937.672 1634.64 938.329 1634.64 939.098H1641.17C1641.17 938.368 1640.88 937.717 1640.31 937.144C1639.75 936.585 1638.97 936.305 1637.96 936.305ZM1651.96 945.699C1651.96 943.59 1652.77 942.027 1654.4 941.012C1656.03 940.009 1658.15 939.508 1660.77 939.508C1662.08 939.508 1663.26 939.618 1664.28 939.84C1665.27 940.048 1665.92 940.282 1666.24 940.543L1666.69 940.855V938.297C1666.69 937.698 1666.49 937.249 1666.1 936.949C1665.72 936.65 1665.05 936.5 1664.09 936.5C1662.33 936.5 1661.45 937.099 1661.45 938.297H1653.03C1653.03 935.94 1653.98 934.156 1655.87 932.945C1657.77 931.721 1660.51 931.109 1664.09 931.109C1667.68 931.109 1670.35 931.689 1672.08 932.848C1673.81 934.006 1674.67 935.823 1674.67 938.297V943.297C1674.67 943.922 1674.75 944.358 1674.89 944.605C1675.05 944.853 1675.31 944.977 1675.69 944.977L1676.28 944.898V951.5C1675.68 951.76 1674.62 951.891 1673.09 951.891C1671.43 951.891 1670.13 951.52 1669.21 950.777C1668.44 950.178 1667.9 949.592 1667.6 949.02L1667.49 948.707H1667.08C1666.95 949.046 1666.71 949.417 1666.35 949.82C1666.02 950.198 1665.61 950.523 1665.14 950.797C1664.64 951.096 1663.91 951.35 1662.98 951.559C1662.05 951.78 1661.05 951.891 1659.97 951.891C1657.64 951.891 1655.72 951.37 1654.21 950.328C1652.71 949.299 1651.96 947.756 1651.96 945.699ZM1659.97 945.133C1659.97 945.992 1661.09 946.422 1663.33 946.422C1665.57 946.422 1666.69 945.992 1666.69 945.133C1666.69 944.286 1665.57 943.863 1663.33 943.863C1661.09 943.863 1659.97 944.286 1659.97 945.133ZM1713.49 951.5H1705.51V941.344C1705.51 939.182 1704.64 938.101 1702.91 938.101C1701.18 938.101 1700.31 939.085 1700.31 941.051V951.5H1692.3V941.344C1692.3 939.182 1691.44 938.101 1689.71 938.101C1687.97 938.101 1687.11 939.182 1687.11 941.344V951.5H1679.1V931.5H1687.11V935.094H1687.5C1687.59 934.755 1687.85 934.286 1688.28 933.687C1688.59 933.245 1688.95 932.848 1689.35 932.496C1689.78 932.118 1690.38 931.793 1691.13 931.519C1691.89 931.246 1692.67 931.109 1693.49 931.109C1694.39 931.109 1695.23 931.246 1696.01 931.519C1696.81 931.78 1697.42 932.112 1697.85 932.515C1698.67 933.297 1699.21 934.026 1699.47 934.703L1699.59 935.094H1699.9C1700.02 934.664 1700.25 934.195 1700.6 933.687C1700.86 933.284 1701.22 932.887 1701.68 932.496C1702.15 932.118 1702.76 931.793 1703.51 931.519C1704.27 931.246 1705.06 931.109 1705.9 931.109C1710.96 931.109 1713.49 933.909 1713.49 939.508V951.5ZM1726.32 944.293H1741.51V951.5H1717.51V923.492H1726.32V944.293ZM1765.1 941.5L1764.98 942.691H1749.53C1749.56 944.006 1749.85 944.97 1750.41 945.582C1750.98 946.194 1751.88 946.5 1753.09 946.5C1753.75 946.5 1754.34 946.357 1754.86 946.07C1755.39 945.784 1755.73 945.471 1755.9 945.133L1756.13 944.703H1764.65C1764.65 945.029 1764.53 945.497 1764.3 946.109C1763.86 947.229 1763.18 948.212 1762.29 949.059C1761.66 949.658 1760.96 950.152 1760.18 950.543C1759.41 950.934 1758.43 951.253 1757.25 951.5C1755.97 951.76 1754.58 951.891 1753.09 951.891C1749.44 951.891 1746.53 951.018 1744.36 949.273C1742.18 947.529 1741.09 944.937 1741.09 941.5C1741.09 938.088 1742.18 935.504 1744.36 933.746C1746.52 931.988 1749.43 931.109 1753.11 931.109C1756.77 931.109 1759.68 931.988 1761.84 933.746C1764.01 935.504 1765.1 938.088 1765.1 941.5ZM1753.09 936.305C1752.07 936.305 1751.26 936.578 1750.67 937.125C1750.07 937.672 1749.77 938.329 1749.77 939.098H1756.29C1756.29 938.368 1756 937.717 1755.43 937.144C1754.87 936.585 1754.09 936.305 1753.09 936.305ZM1767.08 945.699C1767.08 943.59 1767.9 942.027 1769.52 941.012C1771.15 940.009 1773.27 939.508 1775.89 939.508C1777.21 939.508 1778.38 939.618 1779.41 939.84C1780.4 940.048 1781.05 940.282 1781.36 940.543L1781.81 940.855V938.297C1781.81 937.698 1781.61 937.249 1781.22 936.949C1780.85 936.65 1780.18 936.5 1779.21 936.5C1777.45 936.5 1776.57 937.099 1776.57 938.297H1768.16C1768.16 935.94 1769.1 934.156 1770.99 932.945C1772.89 931.721 1775.63 931.109 1779.21 931.109C1782.81 931.109 1785.47 931.689 1787.2 932.848C1788.93 934.006 1789.8 935.823 1789.8 938.297V943.297C1789.8 943.922 1789.87 944.358 1790.01 944.605C1790.17 944.853 1790.44 944.977 1790.81 944.977L1791.4 944.898V951.5C1790.8 951.76 1789.74 951.891 1788.22 951.891C1786.55 951.891 1785.25 951.52 1784.33 950.777C1783.56 950.178 1783.03 949.592 1782.73 949.02L1782.61 948.707H1782.2C1782.07 949.046 1781.83 949.417 1781.48 949.82C1781.14 950.198 1780.73 950.523 1780.27 950.797C1779.76 951.096 1779.04 951.35 1778.1 951.559C1777.17 951.78 1776.17 951.891 1775.09 951.891C1772.76 951.891 1770.84 951.37 1769.33 950.328C1767.83 949.299 1767.08 947.756 1767.08 945.699ZM1775.09 945.133C1775.09 945.992 1776.21 946.422 1778.45 946.422C1780.69 946.422 1781.81 945.992 1781.81 945.133C1781.81 944.286 1780.69 943.863 1778.45 943.863C1776.21 943.863 1775.09 944.286 1775.09 945.133ZM1802.23 951.891C1799.67 951.891 1797.52 950.992 1795.8 949.195C1794.09 947.398 1793.23 944.833 1793.23 941.5C1793.23 938.167 1794.09 935.601 1795.8 933.805C1797.52 932.008 1799.67 931.109 1802.23 931.109C1803.64 931.109 1804.9 931.305 1806.02 931.695C1807.13 932.112 1807.87 932.515 1808.27 932.906L1808.87 933.492H1809.22V923.492H1817.23V951.5H1809.22V947.906H1808.83C1808.62 948.362 1808.34 948.824 1807.97 949.293C1807.57 949.775 1807.16 950.172 1806.74 950.484C1806.23 950.875 1805.57 951.207 1804.75 951.48C1803.94 951.754 1803.1 951.891 1802.23 951.891ZM1802.62 939.019C1801.96 939.631 1801.62 940.458 1801.62 941.5C1801.62 942.542 1801.95 943.368 1802.6 943.98C1803.25 944.592 1804.2 944.898 1805.43 944.898C1806.64 944.898 1807.58 944.599 1808.23 944C1808.89 943.388 1809.22 942.555 1809.22 941.5C1809.22 940.432 1808.89 939.599 1808.23 939C1807.56 938.401 1806.63 938.101 1805.43 938.101C1804.21 938.101 1803.27 938.407 1802.62 939.019ZM1603.08 968.311C1602.16 967.431 1601.7 966.194 1601.7 964.599C1601.7 962.999 1602.16 961.759 1603.08 960.88C1604 960 1605.26 959.56 1606.87 959.56C1608.37 959.56 1609.58 959.934 1610.51 960.682C1611.43 961.424 1611.89 962.404 1611.89 963.621H1608.7C1608.7 963.498 1608.65 963.329 1608.57 963.115C1608.5 962.956 1608.41 962.808 1608.29 962.671C1608.16 962.534 1607.96 962.418 1607.71 962.322C1607.46 962.227 1607.18 962.179 1606.87 962.179C1605.57 962.179 1604.92 962.985 1604.92 964.599C1604.92 966.216 1605.57 967.025 1606.87 967.025C1607.19 967.025 1607.47 966.978 1607.72 966.882C1607.97 966.786 1608.16 966.663 1608.29 966.513C1608.53 966.239 1608.66 965.975 1608.68 965.72L1608.7 965.583H1611.89C1611.89 966.795 1611.43 967.773 1610.51 968.516C1609.58 969.263 1608.37 969.637 1606.87 969.637C1605.27 969.637 1604 969.195 1603.08 968.311ZM1613.81 968.714C1613.05 968.099 1612.67 967.194 1612.67 966C1612.67 964.806 1613.05 963.901 1613.81 963.286C1614.56 962.671 1615.58 962.363 1616.87 962.363C1618.15 962.363 1619.17 962.671 1619.93 963.286C1620.69 963.901 1621.07 964.806 1621.07 966C1621.07 967.194 1620.69 968.099 1619.93 968.714C1619.17 969.329 1618.15 969.637 1616.87 969.637C1615.58 969.637 1614.56 969.329 1613.81 968.714ZM1617.88 966.957C1618.11 966.72 1618.22 966.401 1618.22 966C1618.22 965.599 1618.11 965.278 1617.88 965.036C1617.64 964.799 1617.31 964.681 1616.87 964.681C1616.43 964.681 1616.09 964.799 1615.86 965.036C1615.63 965.278 1615.51 965.599 1615.51 966C1615.51 966.401 1615.63 966.72 1615.86 966.957C1616.09 967.199 1616.43 967.319 1616.87 967.319C1617.31 967.319 1617.64 967.199 1617.88 966.957ZM1630.37 969.5H1627.57V966.123C1627.57 965.727 1627.45 965.41 1627.22 965.173C1626.98 964.931 1626.65 964.811 1626.24 964.811C1625.82 964.811 1625.49 964.929 1625.25 965.166C1625.03 965.398 1624.91 965.717 1624.91 966.123V969.5H1622.11V962.5H1624.91V963.758H1625.05C1625.08 963.648 1625.19 963.484 1625.36 963.266C1625.49 963.115 1625.64 962.976 1625.82 962.849C1626.01 962.716 1626.27 962.602 1626.58 962.507C1626.9 962.411 1627.23 962.363 1627.57 962.363C1628.44 962.363 1629.12 962.607 1629.62 963.095C1630.12 963.587 1630.37 964.323 1630.37 965.303V969.5ZM1637.04 962.78V964.879H1635.08V969.5H1632.27V964.879H1631V963.341L1632.27 962.78V962.609C1632.27 961.57 1632.58 960.802 1633.19 960.306C1633.8 959.809 1634.76 959.56 1636.05 959.56C1636.34 959.56 1636.62 959.588 1636.89 959.643C1637.17 959.693 1637.37 959.75 1637.51 959.813L1637.68 959.909V962.021C1637.36 961.825 1636.99 961.727 1636.56 961.727C1635.57 961.727 1635.08 962.06 1635.08 962.726V962.78H1637.04Z" fill="white"/>
<path d="M1649.85 969.5H1640.82V967.538C1640.82 967.078 1640.93 966.67 1641.14 966.314C1641.35 965.954 1641.64 965.665 1642.01 965.446C1642.63 965.073 1643.44 964.749 1644.44 964.476C1644.73 964.398 1644.97 964.33 1645.17 964.27C1645.37 964.207 1645.58 964.127 1645.79 964.031C1646.02 963.936 1646.2 963.838 1646.33 963.737C1646.46 963.637 1646.57 963.516 1646.66 963.375C1646.74 963.234 1646.79 963.081 1646.79 962.917C1646.79 962.329 1646.35 962.035 1645.47 962.035C1644.59 962.035 1644.15 962.422 1644.15 963.197V963.717H1641.07V963.197C1641.07 961.93 1641.43 961.005 1642.15 960.422C1642.87 959.848 1643.97 959.56 1645.47 959.56C1646.95 959.56 1648.05 959.836 1648.78 960.388C1649.5 960.939 1649.86 961.782 1649.86 962.917C1649.86 963.55 1649.68 964.109 1649.3 964.592C1648.93 965.07 1648.47 965.437 1647.93 965.692C1647.42 965.929 1646.88 966.139 1646.33 966.321C1645.86 966.472 1645.4 966.615 1644.96 966.752C1644.58 966.875 1644.39 966.998 1644.39 967.121H1649.85V969.5ZM1659.3 960.914C1660.15 961.821 1660.58 963.049 1660.58 964.599C1660.58 966.153 1660.15 967.379 1659.3 968.276C1658.45 969.183 1657.26 969.637 1655.75 969.637C1654.23 969.637 1653.05 969.183 1652.2 968.276C1651.34 967.369 1650.91 966.144 1650.91 964.599C1650.91 963.054 1651.34 961.825 1652.2 960.914C1653.05 960.012 1654.24 959.56 1655.75 959.56C1657.26 959.56 1658.45 960.012 1659.3 960.914ZM1655.75 962.179C1654.67 962.179 1654.13 962.985 1654.13 964.599C1654.13 966.216 1654.67 967.025 1655.75 967.025C1656.82 967.025 1657.35 966.216 1657.35 964.599C1657.35 962.985 1656.82 962.179 1655.75 962.179ZM1670.58 969.5H1661.55V967.538C1661.55 967.078 1661.66 966.67 1661.87 966.314C1662.09 965.954 1662.38 965.665 1662.74 965.446C1663.37 965.073 1664.18 964.749 1665.18 964.476C1665.46 964.398 1665.7 964.33 1665.9 964.27C1666.1 964.207 1666.31 964.127 1666.53 964.031C1666.75 963.936 1666.93 963.838 1667.06 963.737C1667.19 963.637 1667.3 963.516 1667.39 963.375C1667.48 963.234 1667.52 963.081 1667.52 962.917C1667.52 962.329 1667.08 962.035 1666.21 962.035C1665.33 962.035 1664.89 962.422 1664.89 963.197V963.717H1661.81V963.197C1661.81 961.93 1662.17 961.005 1662.89 960.422C1663.6 959.848 1664.71 959.56 1666.2 959.56C1667.68 959.56 1668.79 959.836 1669.51 960.388C1670.23 960.939 1670.6 961.782 1670.6 962.917C1670.6 963.55 1670.41 964.109 1670.04 964.592C1669.67 965.07 1669.21 965.437 1668.66 965.692C1668.15 965.929 1667.62 966.139 1667.06 966.321C1666.59 966.472 1666.14 966.615 1665.7 966.752C1665.32 966.875 1665.13 966.998 1665.13 967.121H1670.58V969.5ZM1680.64 962.637V962.78H1677.36C1677.36 962.671 1677.3 962.536 1677.18 962.377C1677.02 962.181 1676.72 962.083 1676.28 962.083C1675.36 962.083 1674.9 962.628 1674.91 963.717H1674.98C1675.11 963.621 1675.19 963.571 1675.19 963.566C1675.28 963.507 1675.5 963.425 1675.86 963.32C1676.2 963.22 1676.58 963.17 1677 963.17C1678.24 963.17 1679.21 963.441 1679.92 963.983C1680.62 964.521 1680.97 965.264 1680.97 966.212C1680.97 967.301 1680.56 968.142 1679.74 968.734C1678.92 969.336 1677.79 969.637 1676.34 969.637C1674.71 969.637 1673.53 969.188 1672.77 968.29C1672.02 967.392 1671.65 966.166 1671.65 964.612C1671.65 963.063 1672.03 961.832 1672.79 960.921C1673.54 960.014 1674.7 959.56 1676.25 959.56C1677.65 959.56 1678.73 959.852 1679.49 960.435C1680.26 961.019 1680.64 961.753 1680.64 962.637ZM1676.32 965.398C1675.93 965.398 1675.62 965.471 1675.38 965.617C1675.14 965.758 1675.02 965.968 1675.02 966.246C1675.02 966.538 1675.15 966.756 1675.41 966.902C1675.66 967.048 1675.97 967.121 1676.34 967.121C1676.78 967.121 1677.13 967.044 1677.37 966.889C1677.63 966.734 1677.75 966.517 1677.75 966.239C1677.73 965.679 1677.25 965.398 1676.32 965.398Z" fill="#00B0FF"/>
</g>
<defs>
<filter id="filter0_f_1_91" x="1363.76" y="423.567" width="1342.24" height="1342.24" filterUnits="userSpaceOnUse" color-interpolation-filters="sRGB">
<feFlood flood-opacity="0" result="BackgroundImageFix"/>
<feBlend mode="normal" in="SourceGraphic" in2="BackgroundImageFix" result="shape"/>
<feGaussianBlur stdDeviation="69.2678" result="effect1_foregroundBlur_1_91"/>
</filter>
<filter id="filter1_f_1_91" x="1230.85" y="654.562" width="1129.44" height="1129.44" filterUnits="userSpaceOnUse" color-interpolation-filters="sRGB">
<feFlood flood-opacity="0" result="BackgroundImageFix"/>
<feBlend mode="normal" in="SourceGraphic" in2="BackgroundImageFix" result="shape"/>
<feGaussianBlur stdDeviation="20.0235" result="effect1_foregroundBlur_1_91"/>
</filter>
<clipPath id="bgblur_1_1_91_clip_path" transform="translate(-1230.85 -654.562)"><path d="M2016.62 726.841C1932.17 748.726 1460.92 871.973 1432.13 879.46C1422.03 882.339 1412.88 887.523 1405.06 894.626C1397.25 901.729 1391.34 910.559 1387.53 920.35C1377.8 946.458 1310.7 1120.39 1302.69 1141.12C1298.69 1149.95 1296.98 1159.74 1297.36 1169.53C1297.74 1179.32 1300.41 1188.73 1304.98 1197.37L1488.18 1585.92C1492.18 1595.14 1498.47 1603.2 1506.29 1609.53C1514.11 1615.87 1523.26 1620.28 1532.98 1622.4L1942.27 1715.89C1953.71 1718.57 1965.53 1718 1976.58 1714.16C1987.64 1710.32 1997.36 1703.6 2004.8 1694.39L2264.06 1389.53C2279.31 1371.49 2304.85 1318.31 2288.65 1266.86L2138.62 790.96C2117.08 722.618 2073.04 712.059 2017 726.841H2016.62Z"/>
</clipPath><filter id="filter2_f_1_91" x="1196.89" y="939.414" width="1280.18" height="805.082" filterUnits="userSpaceOnUse" color-interpolation-filters="sRGB">
<feFlood flood-opacity="0" result="BackgroundImageFix"/>
<feBlend mode="normal" in="SourceGraphic" in2="BackgroundImageFix" result="shape"/>
<feGaussianBlur stdDeviation="25.5554" result="effect1_foregroundBlur_1_91"/>
</filter>
<filter id="filter3_f_1_91" x="1350.87" y="454.136" width="923.348" height="1004.89" filterUnits="userSpaceOnUse" color-interpolation-filters="sRGB">
<feFlood flood-opacity="0" result="BackgroundImageFix"/>
<feBlend mode="normal" in="SourceGraphic" in2="BackgroundImageFix" result="shape"/>
<feGaussianBlur stdDeviation="26.7433" result="effect1_foregroundBlur_1_91"/>
</filter>
<filter id="filter4_f_1_91" x="1728.63" y="356.255" width="1049.66" height="1268.54" filterUnits="userSpaceOnUse" color-interpolation-filters="sRGB">
<feFlood flood-opacity="0" result="BackgroundImageFix"/>
<feBlend mode="normal" in="SourceGraphic" in2="BackgroundImageFix" result="shape"/>
<feGaussianBlur stdDeviation="18.3266" result="effect1_foregroundBlur_1_91"/>
</filter>
<filter id="filter5_f_1_91" x="1331.25" y="-307.482" width="1171.22" height="1041.64" filterUnits="userSpaceOnUse" color-interpolation-filters="sRGB">
<feFlood flood-opacity="0" result="BackgroundImageFix"/>
<feBlend mode="normal" in="SourceGraphic" in2="BackgroundImageFix" result="shape"/>
<feGaussianBlur stdDeviation="22.8404" result="effect1_foregroundBlur_1_91"/>
</filter>
<filter id="filter6_f_1_91" x="1338.88" y="-231.303" width="1131.17" height="1001.59" filterUnits="userSpaceOnUse" color-interpolation-filters="sRGB">
<feFlood flood-opacity="0" result="BackgroundImageFix"/>
<feBlend mode="normal" in="SourceGraphic" in2="BackgroundImageFix" result="shape"/>
<feGaussianBlur stdDeviation="12.8286" result="effect1_foregroundBlur_1_91"/>
</filter>
<filter id="filter7_f_1_91" x="1439.82" y="43.9144" width="939.157" height="802.838" filterUnits="userSpaceOnUse" color-interpolation-filters="sRGB">
<feFlood flood-opacity="0" result="BackgroundImageFix"/>
<feBlend mode="normal" in="SourceGraphic" in2="BackgroundImageFix" result="shape"/>
<feGaussianBlur stdDeviation="10.1814" result="effect1_foregroundBlur_1_91"/>
</filter>
<filter id="filter8_f_1_91" x="1118.36" y="67.2867" width="1390.05" height="817.904" filterUnits="userSpaceOnUse" color-interpolation-filters="sRGB">
<feFlood flood-opacity="0" result="BackgroundImageFix"/>
<feBlend mode="normal" in="SourceGraphic" in2="BackgroundImageFix" result="shape"/>
<feGaussianBlur stdDeviation="21.8222" result="effect1_foregroundBlur_1_91"/>
</filter>
<filter id="filter9_f_1_91" x="1157.49" y="-330.681" width="1332.59" height="1183.64" filterUnits="userSpaceOnUse" color-interpolation-filters="sRGB">
<feFlood flood-opacity="0" result="BackgroundImageFix"/>
<feBlend mode="normal" in="SourceGraphic" in2="BackgroundImageFix" result="shape"/>
<feGaussianBlur stdDeviation="22.8404" result="effect1_foregroundBlur_1_91"/>
</filter>
<filter id="filter10_f_1_91" x="1429.35" y="-37.685" width="975.003" height="878.669" filterUnits="userSpaceOnUse" color-interpolation-filters="sRGB">
<feFlood flood-opacity="0" result="BackgroundImageFix"/>
<feBlend mode="normal" in="SourceGraphic" in2="BackgroundImageFix" result="shape"/>
<feGaussianBlur stdDeviation="21.8222" result="effect1_foregroundBlur_1_91"/>
</filter>
<filter id="filter11_d_1_91" x="-77.9" y="-77.9" width="2075.8" height="1235.8" filterUnits="userSpaceOnUse" color-interpolation-filters="sRGB">
<feFlood flood-opacity="0" result="BackgroundImageFix"/>
<feColorMatrix in="SourceAlpha" type="matrix" values="0 0 0 0 0 0 0 0 0 0 0 0 0 0 0 0 0 0 127 0" result="hardAlpha"/>
<feOffset/>
<feGaussianBlur stdDeviation="38.95"/>
<feComposite in2="hardAlpha" operator="out"/>
<feColorMatrix type="matrix" values="0 0 0 0 0 0 0 0 0 0 0 0 0 0 0 0 0 0 0.62 0"/>
<feBlend mode="normal" in2="BackgroundImageFix" result="effect1_dropShadow_1_91"/>
<feBlend mode="normal" in="BackgroundImageFix" in2="effect1_dropShadow_1_91" result="BackgroundImageFix"/>
<feBlend mode="normal" in="SourceGraphic" in2="BackgroundImageFix" result="shape"/>
</filter>
<linearGradient id="paint0_linear_1_91" x1="2516.82" y1="615.733" x2="1619.59" y2="1463.84" gradientUnits="userSpaceOnUse">
<stop stop-color="#1F00FF"/>
<stop offset="0.285469" stop-color="#001254"/>
<stop offset="0.452146" stop-color="#FF0004"/>
<stop offset="0.957384" stop-color="#2B00FF"/>
</linearGradient>
<clipPath id="clip0_1_91">
<rect width="1920" height="1080" fill="white"/>
</clipPath>
</defs>
</svg>
